<?xml version="1.0" encoding="UTF-8"?>
<svg version="1.1" xmlns="http://www.w3.org/2000/svg" width="1687" height="1673">
<path d="M0 0 C4.5169421 2.00637474 8.7548668 4.39555367 13.02832031 6.87109375 C16.14573539 8.65600303 19.32307713 10.32410032 22.5 12 C26.2118716 13.97244331 29.91902497 15.95238088 33.609375 17.96484375 C41.18281771 22.07818258 48.85985564 25.86202729 56.67089844 29.50366211 C63.17579053 32.55747058 69.5166513 35.86940047 75.85205078 39.25805664 C82.2789202 42.67370293 88.8093409 45.82546036 95.41992188 48.86914062 C100.01177985 50.99687711 104.43625522 53.31393343 108.84326172 55.80151367 C112.00935813 57.56089417 115.24833139 59.15618523 118.5 60.75 C124.25763082 63.59867792 129.95761317 66.53839268 135.625 69.5625 C140.67626569 72.25692655 145.74427225 74.89599997 150.875 77.4375 C158.80067357 81.36870639 166.611418 85.51041929 174.43212891 89.64550781 C178.86521251 91.98385615 183.3082772 94.30311718 187.75 96.625 C193.78774236 99.78179194 199.81099549 102.96240369 205.8125 106.1875 C214.0801702 110.62129465 222.48315183 114.77690214 230.89160156 118.93554688 C240.49514457 123.68957706 250.00966184 128.59881571 259.5012207 133.57275391 C265.05744145 136.47976345 270.63000265 139.34339241 276.25 142.125 C287.12883244 147.51435808 297.90551503 153.13287353 308.5 159.0625 C313.17362497 161.63981392 317.97470498 163.87867018 322.8125 166.125 C330.99786786 169.93083647 338.8871104 174.161753 346.77734375 178.54174805 C353.588763 182.29680748 360.49920709 185.73678094 367.57226562 188.97070312 C372.09059622 191.04449057 376.44706399 193.2971409 380.77514648 195.74389648 C382.92859044 196.95968373 385.09723986 198.14193841 387.2734375 199.31640625 C388.64072908 200.06491407 390.00791739 200.81361058 391.375 201.5625 C392.07238281 201.93568359 392.76976562 202.30886719 393.48828125 202.69335938 C397.98075032 205.172409 401.13965442 207.1272369 402.6796875 212.26953125 C403.40587114 221.72444223 398.07287347 227.29750636 392.42333984 234.23242188 C390.45887178 236.67200143 388.63514785 239.20338624 386.8125 241.75 C384.90448091 244.37788024 382.99606077 247.00539939 381.08203125 249.62890625 C377.35991593 254.73288474 373.66710172 259.85644216 370 265 C364.89016649 272.1655581 359.72656362 279.29036704 354.515625 286.3828125 C347.7725215 295.56120044 341.09172656 304.78300359 334.42919922 314.02001953 C330.44988846 319.53286721 326.44981662 325.03039992 322.421875 330.5078125 C317.53807431 337.15012659 312.68541894 343.81111166 307.90405273 350.52758789 C302.86291044 357.60603209 297.76548448 364.64375383 292.67333984 371.68554688 C289.94736861 375.4559302 287.22379947 379.22804762 284.5 383 C283.42318298 384.49088967 282.34636004 385.98177508 281.26953125 387.47265625 C279.03726028 390.5634413 276.80556322 393.65463977 274.57421875 396.74609375 C266.44631668 408.00611514 258.29504086 419.24789657 250.07470703 430.44067383 C247.2845873 434.24127722 244.51166136 438.05363138 241.75 441.875 C238.77885906 445.97480844 235.706754 449.97683467 232.54296875 453.9296875 C230.95145494 455.99320205 230.95145494 455.99320205 229.60546875 458.32421875 C227.60786037 461.65356606 225.38609951 464.78350383 223.125 467.9375 C222.70347656 468.53240234 222.28195312 469.12730469 221.84765625 469.74023438 C219.78240897 472.62968585 217.67394058 475.42732689 215.3671875 478.12890625 C213.25557938 480.6900151 211.67936085 483.15183776 210 486 C208.08713796 488.76210031 206.10435653 491.4728033 204.125 494.1875 C202.95171475 495.80330688 201.77854079 497.41919457 200.60546875 499.03515625 C200.00653809 499.85902832 199.40760742 500.68290039 198.79052734 501.53173828 C197.07944357 503.89048617 195.37593128 506.25445655 193.67578125 508.62109375 C188.48223358 515.84693315 183.24699907 523.03061407 177.875 530.125 C172.40772082 537.35620794 167.24182129 544.7674571 162.17480469 552.28320312 C161.12525029 553.81696592 160.0376839 555.32455676 158.9453125 556.828125 C158.38585938 557.60671875 157.82640625 558.3853125 157.25 559.1875 C156.78078125 559.82042969 156.3115625 560.45335937 155.828125 561.10546875 C154.78649556 562.99589355 154.78649556 562.99589355 155.42875111 565.14332592 C156.1264029 568.63210956 156.22918865 572.05736394 156.31185722 575.60131645 C156.33232969 576.34912725 156.35280216 577.09693805 156.373895 577.86740978 C156.4394202 580.34191316 156.4975014 582.81651359 156.55441284 585.29122925 C156.58587014 586.58457799 156.58587014 586.58457799 156.61796294 587.90405498 C157.07297462 606.80270752 157.14438451 625.69633194 157.13072467 644.59955502 C157.12840617 649.37687241 157.13198138 654.1541866 157.13470459 658.9315033 C157.13909473 668.23176479 157.13821623 677.5320181 157.13529195 686.83227988 C157.13301009 694.41105382 157.13273727 701.98982551 157.13381577 709.5685997 C157.13404561 711.20223845 157.13404561 711.20223845 157.13428011 712.86888 C157.13459992 715.08316526 157.13492413 717.29745052 157.1352527 719.51173578 C157.13808792 740.15940219 157.13485185 760.80706411 157.12945233 781.45472978 C157.1249899 799.06194449 157.12575944 816.6691526 157.13037109 834.27636719 C157.13575833 854.85358312 157.13780946 875.43079516 157.13475883 896.0080117 C157.13444037 898.21484303 157.134126 900.42167437 157.13381577 902.62850571 C157.13366149 903.71354914 157.13350721 904.79859257 157.13334826 905.9165161 C157.13249519 913.45801819 157.13391956 920.99951774 157.13629532 928.54101944 C157.13914022 937.77241589 157.1382588 947.00380389 157.13301457 956.23519941 C157.13043875 960.91941635 157.12926408 965.60361933 157.13266373 970.28783607 C157.13974881 981.28325086 157.11011958 992.27770822 157.0213874 1003.27278978 C157.00656022 1005.16347425 156.99306295 1007.05416945 156.98062104 1008.94487113 C156.93930745 1015.12973482 156.87532949 1021.31371497 156.78275786 1027.49803065 C156.75585234 1029.48029936 156.73539988 1031.46266779 156.72188546 1033.44507302 C156.70142235 1036.20495024 156.65609175 1038.96339788 156.60482597 1041.72285271 C156.60400345 1042.53005848 156.60318092 1043.33726426 156.60233347 1044.16893081 C156.45407921 1050.0773821 154.95832064 1054.8660934 152 1060 C149.94921875 1061.91015625 149.94921875 1061.91015625 147.6875 1063.0625 C146.81480469 1063.52785156 145.94210937 1063.99320313 145.04296875 1064.47265625 C144.03878906 1064.97667969 143.03460937 1065.48070312 142 1066 C140.13894336 1066.9827243 138.28385554 1067.97616866 136.42895508 1068.97045898 C135.19118351 1069.63109469 133.95036609 1070.28607289 132.70581055 1070.93383789 C127.33866244 1073.74083232 122.17515808 1076.85597349 117 1080 C115.38059557 1080.97720451 113.76080885 1081.95377579 112.140625 1082.9296875 C111.34277588 1083.41058838 110.54492676 1083.89148926 109.72290039 1084.38696289 C97.4169226 1091.79193225 85.06699437 1098.95512585 72.3125 1105.5625 C65.98873968 1108.84126062 59.85369337 1112.19557238 53.91015625 1116.1328125 C43.45246809 1122.84257752 32.46239912 1128.79986807 21.6027832 1134.83154297 C17.19090398 1137.29172545 12.86004419 1139.87329335 8.53344727 1142.48022461 C-5.61073803 1150.96510015 -20.1000802 1158.80447957 -34.69433594 1166.47998047 C-40.38387483 1169.47975664 -46.00756854 1172.50237031 -51.41772461 1175.98706055 C-53.51470125 1177.32950093 -55.67893709 1178.51552703 -57.875 1179.6875 C-73.89831896 1188.33253616 -89.79660742 1197.21923563 -105.37988281 1206.63598633 C-109.69708342 1209.23834266 -114.05202353 1211.76462078 -118.4375 1214.25 C-122.13466318 1216.34602952 -125.79438085 1218.46063727 -129.375 1220.75 C-131.79690153 1222.29633036 -134.22114552 1223.63406968 -136.8125 1224.875 C-141.05085178 1226.93667887 -144.92902535 1229.45435227 -148.8828125 1232.01171875 C-161.39465123 1239.99232766 -174.24871105 1247.63312589 -187.4296875 1254.4453125 C-189.99619136 1255.99769629 -192.13335045 1257.81793232 -194.40576172 1259.76416016 C-197.07359566 1261.83224215 -200.08453063 1263.20259648 -203.125 1264.625 C-216.89611918 1271.30761678 -230.16336378 1278.86174005 -243.3125 1286.6875 C-246.87220666 1288.79642664 -250.43519375 1290.89970722 -254 1293 C-254.7528125 1293.44633789 -255.505625 1293.89267578 -256.28125 1294.35253906 C-269.80559364 1302.30182009 -269.80559364 1302.30182009 -275.84375 1301.6484375 C-280.65002752 1300.20307144 -284.76643626 1297.64107089 -289 1295 C-290.04542969 1294.36191406 -291.09085938 1293.72382812 -292.16796875 1293.06640625 C-294.35725526 1291.72458549 -296.54213568 1290.37555058 -298.72265625 1289.01953125 C-305.47284564 1284.85999858 -312.35988225 1280.93400231 -319.24560547 1277.00439453 C-320.88301532 1276.06697397 -322.51590831 1275.12167595 -324.1484375 1274.17578125 C-330.53025747 1270.49039611 -336.95896341 1266.95743016 -343.5 1263.5625 C-349.35061404 1260.51436853 -354.86260284 1257.22682069 -360.35961914 1253.57739258 C-366.45322872 1249.59405773 -372.84199433 1246.18611359 -379.24804688 1242.73657227 C-387.21771783 1238.44369405 -395.10514991 1234.01748854 -402.97241211 1229.54003906 C-408.45084159 1226.42595307 -413.96017198 1223.3781076 -419.49780273 1220.37060547 C-422.6751521 1218.63017818 -425.80615187 1216.82187528 -428.9375 1215 C-434.2450149 1211.93726932 -439.6430062 1209.1270525 -445.140625 1206.421875 C-455.02355765 1201.50741122 -464.36585701 1195.77922139 -473.71435547 1189.92675781 C-479.29223758 1186.43840325 -484.79488465 1183.0082693 -490.734375 1180.17578125 C-494.62145411 1178.15852123 -498.33241144 1175.83627457 -502.07617188 1173.56762695 C-510.05867932 1168.73678591 -518.16019045 1164.12285623 -526.32421875 1159.60546875 C-531.05997829 1156.97793114 -535.75287792 1154.27994307 -540.4375 1151.5625 C-541.69288574 1150.8358313 -541.69288574 1150.8358313 -542.97363281 1150.09448242 C-547.09096531 1147.70660601 -551.18965653 1145.29647483 -555.25 1142.8125 C-559.71330503 1140.11143092 -564.30659557 1137.67265245 -568.91772461 1135.23706055 C-576.23016366 1131.36822268 -583.44784825 1127.33234267 -590.67089844 1123.29980469 C-594.59072333 1121.112263 -598.51402687 1118.93098948 -602.4375 1116.75 C-603.57251953 1116.11819824 -603.57251953 1116.11819824 -604.73046875 1115.47363281 C-608.74191915 1113.24328054 -612.76746976 1111.04407419 -616.8125 1108.875 C-621.92923775 1106.10408971 -626.84694755 1103.03966979 -631.76171875 1099.9296875 C-634.77197506 1098.13587976 -637.80726665 1096.57218154 -640.94946289 1095.03125 C-644.32793129 1093.33216076 -647.59408905 1091.44115749 -650.875 1089.5625 C-655.32551539 1087.03265212 -659.77108616 1084.55617953 -664.375 1082.3125 C-669.43896501 1079.83510418 -674.19539583 1076.94240586 -679 1074 C-680.84525127 1072.88819082 -682.6928979 1071.78045785 -684.54125977 1070.67382812 C-685.84373505 1069.89328454 -687.14501392 1069.11074094 -688.44506836 1068.32617188 C-691.3045711 1066.60193658 -694.16860315 1064.90500026 -697.078125 1063.265625 C-697.95984375 1062.76546875 -698.8415625 1062.2653125 -699.75 1061.75 C-700.50796875 1061.33234375 -701.2659375 1060.9146875 -702.046875 1060.484375 C-704.60763473 1058.53819761 -705.60309263 1056.91844536 -707 1054 C-707.2784192 1051.15632508 -707.39373315 1048.53776317 -707.36241436 1045.6977129 C-707.36654406 1044.44246811 -707.36654406 1044.44246811 -707.37075719 1043.16186485 C-707.37637283 1040.34500967 -707.36051953 1037.52867993 -707.34489441 1034.71186829 C-707.34460477 1032.67702833 -707.34565443 1030.6421878 -707.34793168 1028.6073491 C-707.35045115 1023.00550172 -707.33437632 1017.4038358 -707.31546748 1011.80202544 C-707.29842053 1005.76438091 -707.29877313 999.72673652 -707.29736328 993.68907166 C-707.29316367 983.90282102 -707.28099534 974.11661033 -707.26184912 964.33037967 C-707.22957725 947.80894486 -707.22402703 931.28758547 -707.22702412 914.76612326 C-707.22807542 908.40903223 -707.22832318 902.05194107 -707.22865009 895.69484997 C-707.2286918 894.98855682 -707.22873351 894.28226366 -707.22877649 893.55456769 C-707.22966047 876.74055871 -707.22342558 859.92655502 -707.21411133 843.11254883 C-707.2135115 842.00895343 -707.2135115 842.00895343 -707.21289954 840.88306317 C-707.20346973 823.72030881 -707.18850153 806.5575734 -707.1619873 789.39483643 C-707.16084851 788.65685849 -707.15970972 787.91888055 -707.15853642 787.15853965 C-707.14931842 781.21013314 -707.13993692 775.26172688 -707.13050281 769.31332071 C-707.0917602 744.78420513 -707.07991719 720.25519756 -707.09869221 695.72605626 C-707.10131265 692.26136808 -707.10358248 688.79667977 -707.10561562 685.3319912 C-707.10601988 684.65012159 -707.10642415 683.96825198 -707.10684066 683.26571966 C-707.1124683 672.29490644 -707.08904432 661.32433801 -707.05418469 650.35358653 C-707.0196367 639.32552207 -707.0141825 628.29768342 -707.03669836 617.26957092 C-707.04796822 611.29550792 -707.04610888 605.32219386 -707.00935555 599.34821701 C-706.97595776 593.87822311 -706.97942528 588.40953254 -707.01210288 582.93954577 C-707.01740363 580.96172565 -707.00918438 578.98381296 -706.98601606 577.00612143 C-706.61148178 564.69411764 -706.61148178 564.69411764 -711.91841602 553.94206524 C-713.2498131 552.59853578 -714.60658934 551.2790998 -716 550 C-720.07523215 544.65691785 -723.90714808 539.21851936 -727.4375 533.5 C-730.40708546 528.75931649 -733.75566293 524.55703494 -737.34765625 520.27734375 C-742.65814593 513.82933358 -747.44829987 506.95322245 -752.37548828 500.21191406 C-754.53780292 497.26773453 -756.73492219 494.35167987 -758.9375 491.4375 C-761.4171227 488.14340269 -763.84189884 484.82817099 -766.1875 481.4375 C-771.40382331 473.91091695 -776.89901916 466.5837301 -782.35205078 459.22802734 C-783.77135298 457.30913078 -785.18271643 455.38485767 -786.58984375 453.45703125 C-790.80421427 447.73170891 -795.25453943 442.41428918 -800.05859375 437.17578125 C-803.21962266 433.63313919 -805.52122383 430.21775678 -807.2578125 425.80078125 C-809.06484694 421.52517869 -811.69007346 418.04206594 -814.5 414.375 C-823 403.14688329 -823 403.14688329 -823 398.5 C-820.88912478 391.11193674 -814.8553313 388.47885626 -808.49609375 384.8828125 C-802.07780177 381.42625749 -795.5450002 378.20830346 -789 375 C-778.45473416 369.9322684 -778.45473416 369.9322684 -768.3125 364.125 C-761.63755922 359.9827096 -754.42303613 356.85168125 -747.32421875 353.515625 C-740.79806742 350.4464127 -734.356503 347.21848524 -727.91943359 343.96777344 C-724.61742792 342.30291074 -721.30828656 340.65233591 -718 339 C-716.66663414 338.3333984 -715.33330076 337.66673181 -714 337 C-706 333 -706 333 -704.00024414 332.00024414 C-702.66596678 331.33302403 -701.33181974 330.66554323 -699.99780273 329.99780273 C-696.67992857 328.33744931 -693.35996671 326.68158076 -690.03515625 325.03515625 C-682.409812 321.25250516 -674.8569965 317.35799621 -667.34692383 313.35131836 C-662.03821731 310.52738394 -656.67965007 307.82081651 -651.28979492 305.15576172 C-645.74811902 302.40341171 -640.28070117 299.52001878 -634.8125 296.625 C-626.87988426 292.43307899 -618.85337464 288.50695838 -610.73120117 284.69750977 C-604.94352516 281.96777897 -599.26600543 279.08272641 -593.625 276.0625 C-586.67238767 272.34044613 -579.63106818 268.86715366 -572.5 265.5 C-564.61380621 261.77600027 -556.86544892 257.87489185 -549.17895508 253.75634766 C-543.26399939 250.60966261 -537.25285312 247.71906879 -531.1875 244.875 C-520.47462436 239.83726129 -510.0600855 234.30906858 -499.63916016 228.70166016 C-498.37407756 228.02105825 -497.10894195 227.34055485 -495.84375 226.66015625 C-495.23590668 226.33325806 -494.62806335 226.00635986 -494.00180054 225.66955566 C-488.96317494 222.96633906 -483.87668025 220.38035568 -478.74658203 217.85668945 C-473.26612214 215.15442699 -467.85091399 212.33389577 -462.4375 209.5 C-461.49406738 209.00749756 -460.55063477 208.51499512 -459.57861328 208.00756836 C-455.06079305 205.64888633 -450.54433784 203.28775698 -446.03515625 200.91259766 C-442.53387608 199.06861801 -439.02820484 197.23320769 -435.52005005 195.40234375 C-434.14091214 194.68061087 -432.76334069 193.95587608 -431.38742065 193.22802734 C-429.44845496 192.20280606 -427.50423706 191.18825907 -425.55859375 190.17578125 C-424.43767334 189.58708252 -423.31675293 188.99838379 -422.16186523 188.3918457 C-417.25797848 186.23316619 -414.33282077 185.51129905 -409.25 187.375 C-401.49397396 191.67566453 -395.32131964 198.38044405 -389.65234375 205.08984375 C-386.93721654 208.22860783 -383.96495822 211.09965346 -381 214 C-375 220 -369 226 -363 232 C-362.401875 232.556875 -361.80375 233.11375 -361.1875 233.6875 C-360 235 -360 235 -360 237 C-359.2575 237.20625 -358.515 237.4125 -357.75 237.625 C-354.15191062 239.42404469 -353.16488373 241.6253283 -351 245 C-347.61257209 248.78697069 -343.86144746 252.14479286 -340 255.4375 C-336.64135014 258.33288781 -333.79242857 261.44157471 -330.921875 264.8125 C-325.78332907 270.66125146 -320.68767268 275.99442372 -314 280 C-313.63837971 281.32594105 -313.30271961 282.65938457 -313 284 C-311.68596724 284.70394612 -310.3479743 285.36345658 -309 286 C-307.30295035 287.63571943 -305.64248249 289.3094951 -304 291 C-302.97587951 292.04137943 -301.95102378 293.08203618 -300.92553711 294.12207031 C-300.37824448 294.67904602 -299.83095184 295.23602173 -299.26707458 295.80987549 C-296.81011735 298.30710859 -294.34504915 300.79627164 -291.87963867 303.28515625 C-290.5804116 304.59957227 -289.28387517 305.91665308 -287.98999023 307.23632812 C-286.11363124 309.14901294 -284.22780219 311.05189757 -282.33984375 312.953125 C-281.47564064 313.84055389 -281.47564064 313.84055389 -280.59397888 314.74591064 C-277.80066625 317.54038648 -275.89251178 319.27715962 -272 320 C-271.67128906 319.20722656 -271.67128906 319.20722656 -271.3359375 318.3984375 C-269.5109303 315.12196259 -267.08360988 312.43299129 -264.625 309.625 C-261.90860421 306.51639733 -259.32020022 303.48412743 -257.0390625 300.03515625 C-254.55766264 296.34157829 -251.70809982 293.12710089 -248.75 289.8125 C-244.05700103 284.48938288 -239.71542345 279.11523534 -235.68359375 273.26953125 C-234 271 -234 271 -232.13671875 269.140625 C-229.27690316 266.27558123 -226.85561199 263.13112213 -224.375 259.9375 C-223.64023438 259.00067383 -223.64023438 259.00067383 -222.890625 258.04492188 C-220.82882264 255.40570219 -218.85983585 252.78975377 -217 250 C-216.34 250 -215.68 250 -215 250 C-214.75507812 249.27167969 -214.51015625 248.54335938 -214.2578125 247.79296875 C-212.85525932 244.67860377 -211.22086374 242.78505673 -208.875 240.3125 C-202.47282223 233.39650378 -196.6687133 226.09041601 -191.2265625 218.3984375 C-190.82179688 217.93695313 -190.41703125 217.47546875 -190 217 C-189.34 217 -188.68 217 -188 217 C-187.74347656 216.26007813 -187.48695313 215.52015625 -187.22265625 214.7578125 C-185.94425459 211.87426115 -184.58890656 210.16114111 -182.4375 207.875 C-178.21796794 203.26981179 -174.2583545 198.49915998 -170.33056641 193.64404297 C-168.28781505 191.12002689 -166.23905908 188.60089623 -164.19116211 186.08105469 C-163.06282447 184.69258203 -161.93473237 183.3039098 -160.80688477 181.91503906 C-156.21857723 176.26520221 -151.61306111 170.62964309 -147 165 C-144.74914604 162.24939351 -142.49872582 159.49844046 -140.25 156.74609375 C-138.75510077 154.92159001 -137.25512379 153.10123443 -135.75 151.28515625 C-130.89529909 145.41063101 -126.30066886 139.41909417 -121.84765625 133.23828125 C-120.93306641 132.13033203 -120.93306641 132.13033203 -120 131 C-119.34 131 -118.68 131 -118 131 C-117.76667969 130.28199219 -117.53335938 129.56398438 -117.29296875 128.82421875 C-115.76629304 125.48951622 -113.85565367 123.44912333 -111.3125 120.8125 C-107.27461537 116.50076172 -103.80671367 112.12732461 -100.5703125 107.19140625 C-98.90108611 104.86196345 -97.04367814 103.00475094 -95 101 C-93.66677568 99.43407739 -92.35600863 97.8488859 -91.0625 96.25 C-89.89847656 94.81527344 -89.89847656 94.81527344 -88.7109375 93.3515625 C-88.28393555 92.82336914 -87.85693359 92.29517578 -87.41699219 91.75097656 C-85.83603535 89.79738896 -84.25036606 87.84768587 -82.6640625 85.8984375 C-73.92186943 75.16296687 -73.92186943 75.16296687 -65.34692383 64.29394531 C-60.48018373 58.03784222 -55.45371742 51.95724553 -50.26708984 45.96435547 C-46.83330194 41.99149739 -43.51682122 37.94620296 -40.2578125 33.828125 C-21.03837472 9.75395034 -21.03837472 9.75395034 -16 5 C-15.34 5 -14.68 5 -14 5 C-13.67 4.01 -13.34 3.02 -13 2 C-8.83622875 -0.62130353 -4.74937877 -0.96709805 0 0 Z " fill="#DDDEDE" transform="translate(1048,184)"/>
<path d="M0 0 C4.5169421 2.00637474 8.7548668 4.39555367 13.02832031 6.87109375 C16.14573539 8.65600303 19.32307713 10.32410032 22.5 12 C26.2118716 13.97244331 29.91902497 15.95238088 33.609375 17.96484375 C41.18281771 22.07818258 48.85985564 25.86202729 56.67089844 29.50366211 C63.17579053 32.55747058 69.5166513 35.86940047 75.85205078 39.25805664 C82.2789202 42.67370293 88.8093409 45.82546036 95.41992188 48.86914062 C100.01177985 50.99687711 104.43625522 53.31393343 108.84326172 55.80151367 C112.00935813 57.56089417 115.24833139 59.15618523 118.5 60.75 C124.25763082 63.59867792 129.95761317 66.53839268 135.625 69.5625 C140.67626569 72.25692655 145.74427225 74.89599997 150.875 77.4375 C158.80067357 81.36870639 166.611418 85.51041929 174.43212891 89.64550781 C178.86521251 91.98385615 183.3082772 94.30311718 187.75 96.625 C193.78774236 99.78179194 199.81099549 102.96240369 205.8125 106.1875 C214.0801702 110.62129465 222.48315183 114.77690214 230.89160156 118.93554688 C240.49514457 123.68957706 250.00966184 128.59881571 259.5012207 133.57275391 C265.05744145 136.47976345 270.63000265 139.34339241 276.25 142.125 C287.12883244 147.51435808 297.90551503 153.13287353 308.5 159.0625 C313.17362497 161.63981392 317.97470498 163.87867018 322.8125 166.125 C330.99786786 169.93083647 338.8871104 174.161753 346.77734375 178.54174805 C353.588763 182.29680748 360.49920709 185.73678094 367.57226562 188.97070312 C372.09059622 191.04449057 376.44706399 193.2971409 380.77514648 195.74389648 C382.92859044 196.95968373 385.09723986 198.14193841 387.2734375 199.31640625 C388.64072908 200.06491407 390.00791739 200.81361058 391.375 201.5625 C392.07238281 201.93568359 392.76976562 202.30886719 393.48828125 202.69335938 C397.98075032 205.172409 401.13965442 207.1272369 402.6796875 212.26953125 C403.40587114 221.72444223 398.07287347 227.29750636 392.42333984 234.23242188 C390.45887178 236.67200143 388.63514785 239.20338624 386.8125 241.75 C384.90448091 244.37788024 382.99606077 247.00539939 381.08203125 249.62890625 C377.35991593 254.73288474 373.66710172 259.85644216 370 265 C364.89016649 272.1655581 359.72656362 279.29036704 354.515625 286.3828125 C347.7725215 295.56120044 341.09172656 304.78300359 334.42919922 314.02001953 C330.44988846 319.53286721 326.44981662 325.03039992 322.421875 330.5078125 C317.53807431 337.15012659 312.68541894 343.81111166 307.90405273 350.52758789 C302.86291044 357.60603209 297.76548448 364.64375383 292.67333984 371.68554688 C289.94736861 375.4559302 287.22379947 379.22804762 284.5 383 C283.42318298 384.49088967 282.34636004 385.98177508 281.26953125 387.47265625 C279.03726028 390.5634413 276.80556322 393.65463977 274.57421875 396.74609375 C266.44631668 408.00611514 258.29504086 419.24789657 250.07470703 430.44067383 C247.2845873 434.24127722 244.51166136 438.05363138 241.75 441.875 C238.77885906 445.97480844 235.706754 449.97683467 232.54296875 453.9296875 C230.95145494 455.99320205 230.95145494 455.99320205 229.60546875 458.32421875 C227.60786037 461.65356606 225.38609951 464.78350383 223.125 467.9375 C222.49271484 468.82985352 222.49271484 468.82985352 221.84765625 469.74023438 C219.78240897 472.62968585 217.67394058 475.42732689 215.3671875 478.12890625 C213.25557938 480.6900151 211.67936085 483.15183776 210 486 C208.08713796 488.76210031 206.10435653 491.4728033 204.125 494.1875 C202.95171475 495.80330688 201.77854079 497.41919457 200.60546875 499.03515625 C200.00653809 499.85902832 199.40760742 500.68290039 198.79052734 501.53173828 C197.07944357 503.89048617 195.37593128 506.25445655 193.67578125 508.62109375 C188.48223358 515.84693315 183.24699907 523.03061407 177.875 530.125 C173.82846472 535.4770841 169.92320285 540.90636305 166.125 546.4375 C165.65843994 547.10990723 165.19187988 547.78231445 164.71118164 548.47509766 C162.84978131 551.17970795 161.09373513 553.82484348 159.54296875 556.72265625 C155.95968541 563.3545743 150.49071651 565.63370997 143.921875 568.65625 C138.09070277 571.36237617 132.52964843 574.52335731 126.9375 577.6875 C125.86781982 578.29037842 124.79813965 578.89325684 123.69604492 579.5144043 C120.46202879 581.33942231 117.23077174 583.16924591 114 585 C112.05352856 586.10051363 110.10691878 587.20078263 108.16015625 588.30078125 C105.3268469 589.90199451 102.49373316 591.50354656 99.66137695 593.10644531 C87.40993015 600.03786808 75.11968934 606.90006269 62.83398438 613.77050781 C59.68075909 615.53409366 56.52777996 617.29811817 53.375 619.0625 C52.33730469 619.64322266 51.29960938 620.22394531 50.23046875 620.82226562 C43.3512246 624.67515894 36.48517664 628.55078006 29.625 632.4375 C20.13019929 637.81602438 10.59561735 643.1207389 1.05175781 648.41162109 C-7.13409356 652.95347093 -15.29287351 657.54096165 -23.4375 662.15625 C-30.44596982 666.12642196 -37.46961856 670.06877191 -44.5 674 C-52.51125156 678.48029336 -60.51218091 682.9780611 -68.5 687.5 C-81.69637709 694.96932638 -94.931318 702.36936445 -108.16601562 709.77050781 C-119.28970968 715.99194386 -130.40812405 722.22197534 -141.5 728.5 C-155.7702152 736.57697124 -170.08299392 744.57775263 -184.3984375 752.57421875 C-194.08200036 757.98632045 -203.75409109 763.41466047 -213.375 768.9375 C-222.51356588 774.18345269 -231.71542494 779.31118327 -240.94335938 784.39819336 C-246.40783162 787.41735342 -251.84054896 790.47226603 -257.2109375 793.65625 C-258.17064453 794.22150391 -259.13035156 794.78675781 -260.11914062 795.36914062 C-261.90907168 796.42838402 -263.69211659 797.49938324 -265.46679688 798.58398438 C-266.65499023 799.28491211 -266.65499023 799.28491211 -267.8671875 800 C-268.54894043 800.4125 -269.23069336 800.825 -269.93310547 801.25 C-272.73235142 802.26574339 -274.16739807 801.88855585 -277 801 C-279.04110944 800.01962734 -281.04665835 798.96373114 -283.0234375 797.859375 C-283.59716095 797.54119812 -284.1708844 797.22302124 -284.76199341 796.89520264 C-286.63669987 795.85329696 -288.50582086 794.80178433 -290.375 793.75 C-291.68915347 793.0170406 -293.00361029 792.28462485 -294.31835938 791.55273438 C-302.98862579 786.71900306 -311.62933967 781.83227688 -320.26220703 776.93212891 C-329.73450303 771.56279726 -339.27270808 766.3146566 -348.81069946 761.06340027 C-349.42230927 760.72665787 -350.03391907 760.38991547 -350.6640625 760.04296875 C-351.27607513 759.70602493 -351.88808777 759.36908112 -352.51864624 759.02192688 C-362.2418512 753.66642283 -371.93879132 748.26351124 -381.63964844 742.86767578 C-385.05276177 740.97067513 -388.46754978 739.0767217 -391.8828125 737.18359375 C-403.3846089 730.80594802 -414.86510069 724.39431141 -426.30664062 717.90917969 C-437.02144054 711.84287498 -447.79162827 705.87675445 -458.56054688 699.90722656 C-464.20902105 696.77506584 -469.85436857 693.63728082 -475.5 690.5 C-477.74998464 689.24997235 -479.99998465 687.99997237 -482.25 686.75 C-486.75 684.25 -491.25 681.75 -495.75 679.25 C-496.86391113 678.63116943 -497.97782227 678.01233887 -499.12548828 677.37475586 C-501.37389139 676.12562495 -503.62226382 674.87643881 -505.87060547 673.62719727 C-511.5197867 670.48844509 -517.1695096 667.35067557 -522.8203125 664.21484375 C-558.35665073 644.49110658 -558.35665073 644.49110658 -573.76171875 635.7265625 C-584.86947332 629.40952791 -596.04820903 623.25524475 -607.31494141 617.22607422 C-615.30906746 612.93778728 -623.22186243 608.52274754 -631.10546875 604.03515625 C-638.86702268 599.622766 -646.67690729 595.30183114 -654.5 591 C-671.10917271 581.86222414 -687.68180138 572.65054757 -704 563 C-702.75935763 559.2780729 -701.82067629 559.04868063 -698.453125 557.20703125 C-696.99072388 556.39794312 -696.99072388 556.39794312 -695.4987793 555.57250977 C-694.42668213 554.99170654 -693.35458496 554.41090332 -692.25 553.8125 C-690.54210878 552.87274652 -688.83422135 551.93298609 -687.12651062 550.99290466 C-685.3154123 549.99791059 -683.5019568 549.00732864 -681.68798828 548.01757812 C-678.07336575 546.04342803 -674.47104748 544.04761851 -670.87109375 542.046875 C-657.68204936 534.72403488 -644.42885053 527.53344919 -631.11376953 520.44262695 C-622.74524008 515.97203618 -614.47921314 511.34231959 -606.23999023 506.63867188 C-599.09401245 502.57570357 -591.85191948 498.72990264 -584.55419922 494.94775391 C-578.30949373 491.70569623 -572.14457345 488.34326536 -566.00732422 484.90283203 C-559.80979619 481.43357099 -553.56541603 478.0557241 -547.3125 474.6875 C-539.40487883 470.42372768 -531.55452223 466.07451075 -523.75 461.625 C-514.6506532 456.43987537 -505.44923162 451.46256191 -496.20385742 446.54455566 C-487.20467674 441.75435273 -478.29734458 436.82341624 -469.44140625 431.7734375 C-462.67575971 427.92352985 -455.85485151 424.18848139 -449 420.5 C-440.22164346 415.77346493 -431.51540964 410.93562932 -422.84667969 406.01123047 C-415.50340028 401.84191002 -408.1339289 397.72187932 -400.75 393.625 C-399.62247314 392.99940186 -398.49494629 392.37380371 -397.33325195 391.72924805 C-395.03838473 390.45646043 -392.74338086 389.18391916 -390.44824219 387.91162109 C-368.13043 375.53917211 -345.82838502 363.13941741 -323.625 350.5625 C-315.02149282 345.69033569 -306.39326355 340.86366614 -297.75 336.0625 C-296.64350098 335.44769775 -295.53700195 334.83289551 -294.39697266 334.19946289 C-293.33269043 333.6089917 -292.2684082 333.01852051 -291.171875 332.41015625 C-289.62983398 331.54801514 -289.62983398 331.54801514 -288.05664062 330.66845703 C-286.01324724 329.55307761 -283.94861702 328.47578241 -281.86523438 327.43701172 C-276.28484282 324.6165873 -273.33021236 323.02932835 -271 317 C-269.15978311 314.5454305 -267.10922237 312.28355383 -265.0625 310 C-262.18341227 306.76411735 -259.41495123 303.62364969 -257.01171875 300.01171875 C-254.54615043 296.32054753 -251.70079816 293.11891926 -248.75 289.8125 C-244.05700103 284.48938288 -239.71542345 279.11523534 -235.68359375 273.26953125 C-234 271 -234 271 -232.13671875 269.140625 C-229.27690316 266.27558123 -226.85561199 263.13112213 -224.375 259.9375 C-223.88515625 259.31294922 -223.3953125 258.68839844 -222.890625 258.04492188 C-220.82882264 255.40570219 -218.85983585 252.78975377 -217 250 C-216.34 250 -215.68 250 -215 250 C-214.63261719 248.90751953 -214.63261719 248.90751953 -214.2578125 247.79296875 C-212.85525932 244.67860377 -211.22086374 242.78505673 -208.875 240.3125 C-202.47282223 233.39650378 -196.6687133 226.09041601 -191.2265625 218.3984375 C-190.82179688 217.93695313 -190.41703125 217.47546875 -190 217 C-189.34 217 -188.68 217 -188 217 C-187.74347656 216.26007813 -187.48695313 215.52015625 -187.22265625 214.7578125 C-185.94425459 211.87426115 -184.58890656 210.16114111 -182.4375 207.875 C-178.21796794 203.26981179 -174.2583545 198.49915998 -170.33056641 193.64404297 C-168.28781505 191.12002689 -166.23905908 188.60089623 -164.19116211 186.08105469 C-163.06282447 184.69258203 -161.93473237 183.3039098 -160.80688477 181.91503906 C-156.21857723 176.26520221 -151.61306111 170.62964309 -147 165 C-144.74914604 162.24939351 -142.49872582 159.49844046 -140.25 156.74609375 C-138.75510077 154.92159001 -137.25512379 153.10123443 -135.75 151.28515625 C-130.89529909 145.41063101 -126.30066886 139.41909417 -121.84765625 133.23828125 C-120.93306641 132.13033203 -120.93306641 132.13033203 -120 131 C-119.34 131 -118.68 131 -118 131 C-117.76667969 130.28199219 -117.53335938 129.56398438 -117.29296875 128.82421875 C-115.76629304 125.48951622 -113.85565367 123.44912333 -111.3125 120.8125 C-107.27461537 116.50076172 -103.80671367 112.12732461 -100.5703125 107.19140625 C-98.90108611 104.86196345 -97.04367814 103.00475094 -95 101 C-93.66677568 99.43407739 -92.35600863 97.8488859 -91.0625 96.25 C-89.89847656 94.81527344 -89.89847656 94.81527344 -88.7109375 93.3515625 C-88.28393555 92.82336914 -87.85693359 92.29517578 -87.41699219 91.75097656 C-85.83603535 89.79738896 -84.25036606 87.84768587 -82.6640625 85.8984375 C-73.92186943 75.16296687 -73.92186943 75.16296687 -65.34692383 64.29394531 C-60.48018373 58.03784222 -55.45371742 51.95724553 -50.26708984 45.96435547 C-46.83330194 41.99149739 -43.51682122 37.94620296 -40.2578125 33.828125 C-21.03837472 9.75395034 -21.03837472 9.75395034 -16 5 C-15.34 5 -14.68 5 -14 5 C-13.67 4.01 -13.34 3.02 -13 2 C-8.83622875 -0.62130353 -4.74937877 -0.96709805 0 0 Z " fill="#7D828E" transform="translate(1048,184)"/>
<path d="M0 0 C2.01795168 4.19351748 2.33655155 8.02498427 2.40951347 12.60131645 C2.42857099 13.34912725 2.44762851 14.09693805 2.46726353 14.86740978 C2.52710338 17.34190375 2.57251372 19.81641334 2.61691284 22.29122925 C2.65459046 24.04974982 2.69259204 25.80826348 2.73089969 27.56677043 C3.10187828 45.57660067 3.14374118 63.58660737 3.13072467 81.59955502 C3.12840617 86.37687241 3.13198138 91.1541866 3.13470459 95.9315033 C3.13909473 105.23176479 3.13821623 114.5320181 3.13529195 123.83227988 C3.13301009 131.41105382 3.13273727 138.98982551 3.13381577 146.5685997 C3.133969 147.6576922 3.13412223 148.7467847 3.13428011 149.86888 C3.13459992 152.08316526 3.13492413 154.29745052 3.1352527 156.51173578 C3.13808792 177.15940219 3.13485185 197.80706411 3.12945233 218.45472978 C3.1249899 236.06194449 3.12575944 253.6691526 3.13037109 271.27636719 C3.13575833 291.85358312 3.13780946 312.43079516 3.13475883 333.0080117 C3.13444037 335.21484303 3.134126 337.42167437 3.13381577 339.62850571 C3.13366149 340.71354914 3.13350721 341.79859257 3.13334826 342.9165161 C3.13249519 350.45801819 3.13391956 357.99951774 3.13629532 365.54101944 C3.13914022 374.77241589 3.1382588 384.00380389 3.13301457 393.23519941 C3.13043875 397.91941635 3.12926408 402.60361933 3.13266373 407.28783607 C3.13974881 418.28325086 3.11011958 429.27770822 3.0213874 440.27278978 C3.00656022 442.16347425 2.99306295 444.05416945 2.98062104 445.94487113 C2.93930745 452.12973482 2.87532949 458.31371497 2.78275786 464.49803065 C2.75585234 466.48029936 2.73539988 468.46266779 2.72188546 470.44507302 C2.70142235 473.20495024 2.65609175 475.96339788 2.60482597 478.72285271 C2.60359218 479.93366137 2.60359218 479.93366137 2.60233347 481.16893081 C2.45407921 487.0773821 0.95832064 491.8660934 -2 497 C-4.05078125 498.91015625 -4.05078125 498.91015625 -6.3125 500.0625 C-7.18519531 500.52785156 -8.05789063 500.99320313 -8.95703125 501.47265625 C-9.96121094 501.97667969 -10.96539063 502.48070312 -12 503 C-13.86105664 503.9827243 -15.71614446 504.97616866 -17.57104492 505.97045898 C-18.80881649 506.63109469 -20.04963391 507.28607289 -21.29418945 507.93383789 C-26.66133756 510.74083232 -31.82484192 513.85597349 -37 517 C-38.61940443 517.97720451 -40.23919115 518.95377579 -41.859375 519.9296875 C-42.65722412 520.41058838 -43.45507324 520.89148926 -44.27709961 521.38696289 C-56.5830774 528.79193225 -68.93300563 535.95512585 -81.6875 542.5625 C-88.01126032 545.84126062 -94.14630663 549.19557238 -100.08984375 553.1328125 C-110.54753191 559.84257752 -121.53760088 565.79986807 -132.3972168 571.83154297 C-136.80909602 574.29172545 -141.13995581 576.87329335 -145.46655273 579.48022461 C-159.61073803 587.96510015 -174.1000802 595.80447957 -188.69433594 603.47998047 C-194.38387483 606.47975664 -200.00756854 609.50237031 -205.41772461 612.98706055 C-207.51470125 614.32950093 -209.67893709 615.51552703 -211.875 616.6875 C-227.89831896 625.33253616 -243.79660742 634.21923563 -259.37988281 643.63598633 C-263.69708342 646.23834266 -268.05202353 648.76462078 -272.4375 651.25 C-276.13466318 653.34602952 -279.79438085 655.46063727 -283.375 657.75 C-285.79690153 659.29633036 -288.22114552 660.63406968 -290.8125 661.875 C-295.05085178 663.93667887 -298.92902535 666.45435227 -302.8828125 669.01171875 C-315.39465123 676.99232766 -328.24871105 684.63312589 -341.4296875 691.4453125 C-343.99619136 692.99769629 -346.13335045 694.81793232 -348.40576172 696.76416016 C-351.07359566 698.83224215 -354.08453063 700.20259648 -357.125 701.625 C-370.89598795 708.3075531 -384.16404806 715.86079752 -397.3125 723.6875 C-410.5812576 731.56086049 -410.5812576 731.56086049 -416.4375 734.8125 C-417.54996094 735.43769531 -418.66242187 736.06289062 -419.80859375 736.70703125 C-423.4217324 738.17086098 -426.13724323 738.24905259 -430 738 C-429.01 737.67 -428.02 737.34 -427 737 C-427.00645525 735.95004431 -427.01291049 734.90008863 -427.01956135 733.8183161 C-427.30295155 687.54246518 -427.56522113 641.26655573 -427.71983337 594.99008179 C-427.72218034 594.28941306 -427.72452731 593.58874434 -427.7269454 592.86684323 C-427.77782556 577.63920078 -427.82491855 562.41154883 -427.8681106 547.18388269 C-427.88931521 539.71617359 -427.91135664 532.24846707 -427.93383789 524.78076172 C-427.93717225 523.66607561 -427.93717225 523.66607561 -427.94057396 522.5288706 C-428.01300962 498.44450423 -428.14069496 474.36081617 -428.29705275 450.2768607 C-428.45744733 425.52614297 -428.5620614 400.77580057 -428.59655483 376.02457191 C-428.60145342 372.52818426 -428.60698924 369.03179789 -428.61291313 365.53541183 C-428.61405932 364.84727713 -428.61520551 364.15914242 -428.61638644 363.45015514 C-428.63647158 352.37541305 -428.7153035 341.30183191 -428.81614458 330.22756318 C-428.91628503 319.09240127 -428.95306719 307.95812122 -428.92952342 296.82245775 C-428.9186192 290.788639 -428.93547188 284.75822495 -429.02649307 278.72500992 C-429.10924223 273.19978155 -429.11342005 267.68024402 -429.05528121 262.15475337 C-429.0480977 260.15716578 -429.06968136 258.15922307 -429.1230141 256.16233464 C-429.48859517 241.62830281 -429.48859517 241.62830281 -425.33378927 237.2402496 C-421.24704548 234.08333113 -416.79866914 231.90115167 -412.0596953 229.89708893 C-409.18400713 228.6445988 -406.51791333 227.08250789 -403.8203125 225.48828125 C-401.92298385 224.42770137 -400.02453273 223.36912722 -398.125 222.3125 C-397.08182617 221.73000488 -396.03865234 221.14750977 -394.96386719 220.54736328 C-389.35852413 217.41967186 -383.74667841 214.30376914 -378.1328125 211.19140625 C-375.83849658 209.91935216 -373.54422567 208.64721687 -371.25 207.375 C-370.11530273 206.74577637 -368.98060547 206.11655273 -367.81152344 205.46826172 C-360.12303171 201.19774083 -352.47327338 196.86465117 -344.84619141 192.4855957 C-337.07287887 188.02721907 -329.25539956 183.64965962 -321.43261719 179.27880859 C-314.48420755 175.39524672 -307.5501032 171.48744764 -300.625 167.5625 C-291.1302939 162.18381065 -281.59561553 156.8792601 -272.05175781 151.58837891 C-263.86447423 147.04573441 -255.70451807 142.45700595 -247.55810547 137.84155273 C-240.59133199 133.89556164 -233.61194893 129.97265227 -226.625 126.0625 C-225.58875488 125.48250244 -224.55250977 124.90250488 -223.48486328 124.30493164 C-218.19160013 121.34311739 -212.89697672 118.3837476 -207.6015625 115.42578125 C-197.91799678 110.01367796 -188.24602882 104.58513374 -178.625 99.0625 C-168.41746372 93.20552396 -158.12912778 87.49768096 -147.8359375 81.79296875 C-138.23987209 76.47344027 -128.67145902 71.10469158 -119.1015625 65.73828125 C-115.96447836 63.98009177 -112.82618127 62.22408656 -109.6875 60.46875 C-98.66469489 54.30323569 -87.65456842 48.11633642 -76.66357422 41.89428711 C-68.57361322 37.31727287 -60.46399108 32.77586289 -52.35131836 28.23925781 C-45.24380446 24.26254653 -38.14978969 20.26262609 -31.0625 16.25 C-28.27480396 14.67395041 -25.48671082 13.09860802 -22.69824219 11.52392578 C-20.89379251 10.5048003 -19.08975833 9.48493882 -17.28613281 8.46435547 C-14.75571943 7.03430403 -12.22214082 5.61004181 -9.6875 4.1875 C-8.93412354 3.76049805 -8.18074707 3.33349609 -7.40454102 2.89355469 C-2.22906253 0 -2.22906253 0 0 0 Z " fill="#F5F6F5" transform="translate(1202,747)"/>
<path d="M0 0 C0.33 158.07 0.66 316.14 1 479 C-3.55568218 478.08886356 -6.05708705 477.07523379 -10.0234375 474.859375 C-10.59716095 474.54119812 -11.1708844 474.22302124 -11.76199341 473.89520264 C-13.63669987 472.85329696 -15.50582086 471.80178433 -17.375 470.75 C-18.68915347 470.0170406 -20.00361029 469.28462485 -21.31835938 468.55273438 C-29.98862579 463.71900306 -38.62933967 458.83227688 -47.26220703 453.93212891 C-56.73450303 448.56279726 -66.27270808 443.3146566 -75.81069946 438.06340027 C-76.42230927 437.72665787 -77.03391907 437.38991547 -77.6640625 437.04296875 C-78.27607513 436.70602493 -78.88808777 436.36908112 -79.51864624 436.02192688 C-89.2418512 430.66642283 -98.93879132 425.26351124 -108.63964844 419.86767578 C-112.05276177 417.97067513 -115.46754978 416.0767217 -118.8828125 414.18359375 C-130.3846089 407.80594802 -141.86510069 401.39431141 -153.30664062 394.90917969 C-164.02144054 388.84287498 -174.79162827 382.87675445 -185.56054688 376.90722656 C-191.20902105 373.77506584 -196.85436857 370.63728082 -202.5 367.5 C-204.74998464 366.24997235 -206.99998465 364.99997237 -209.25 363.75 C-213.75 361.25 -218.25 358.75 -222.75 356.25 C-223.86391113 355.63116943 -224.97782227 355.01233887 -226.12548828 354.37475586 C-228.37389139 353.12562495 -230.62226382 351.87643881 -232.87060547 350.62719727 C-238.5197867 347.48844509 -244.1695096 344.35067557 -249.8203125 341.21484375 C-285.35665073 321.49110658 -285.35665073 321.49110658 -300.76171875 312.7265625 C-311.86947332 306.40952791 -323.04820903 300.25524475 -334.31494141 294.22607422 C-342.30906746 289.93778728 -350.22186243 285.52274754 -358.10546875 281.03515625 C-365.86702268 276.622766 -373.67690729 272.30183114 -381.5 268 C-398.10917271 258.86222414 -414.68180138 249.65054757 -431 240 C-429.75935763 236.2780729 -428.82067629 236.04868063 -425.453125 234.20703125 C-424.47819092 233.66763916 -423.50325684 233.12824707 -422.4987793 232.57250977 C-420.89063354 231.70130493 -420.89063354 231.70130493 -419.25 230.8125 C-417.54210878 229.87274652 -415.83422135 228.93298609 -414.12651062 227.99290466 C-412.3154123 226.99791059 -410.5019568 226.00732864 -408.68798828 225.01757812 C-405.07336575 223.04342803 -401.47104748 221.04761851 -397.87109375 219.046875 C-384.68204936 211.72403488 -371.42885053 204.53344919 -358.11376953 197.44262695 C-349.74524008 192.97203618 -341.47921314 188.34231959 -333.23999023 183.63867188 C-326.09401245 179.57570357 -318.85191948 175.72990264 -311.55419922 171.94775391 C-305.30949373 168.70569623 -299.14457345 165.34326536 -293.00732422 161.90283203 C-286.80979619 158.43357099 -280.56541603 155.0557241 -274.3125 151.6875 C-266.40487883 147.42372768 -258.55452223 143.07451075 -250.75 138.625 C-241.6506532 133.43987537 -232.44923162 128.46256191 -223.20385742 123.54455566 C-214.20467674 118.75435273 -205.29734458 113.82341624 -196.44140625 108.7734375 C-189.67575971 104.92352985 -182.85485151 101.18848139 -176 97.5 C-167.22164346 92.77346493 -158.51540964 87.93562932 -149.84667969 83.01123047 C-142.50340028 78.84191002 -135.1339289 74.72187932 -127.75 70.625 C-126.62247314 69.99940186 -125.49494629 69.37380371 -124.33325195 68.72924805 C-122.03838473 67.45646043 -119.74338086 66.18391916 -117.44824219 64.91162109 C-95.13043 52.53917211 -72.82838502 40.13941741 -50.625 27.5625 C-42.02149282 22.69033569 -33.39326355 17.86366614 -24.75 13.0625 C-23.64350098 12.44769775 -22.53700195 11.83289551 -21.39697266 11.19946289 C-18.26661678 9.46271965 -15.13394329 7.73026027 -12 6 C-10.94232422 5.41460449 -9.88464844 4.82920898 -8.79492188 4.22607422 C-7.79525391 3.67580566 -6.79558594 3.12553711 -5.765625 2.55859375 C-4.42419434 1.81887329 -4.42419434 1.81887329 -3.05566406 1.06420898 C-1 0 -1 0 0 0 Z " fill="#A1A4AE" transform="translate(775,507)"/>
<path d="M0 0 C2.61445966 2.11027956 4.77152545 4.49552173 7 7 C8.65818507 8.67510532 10.32609231 10.34060596 12 12 C13.05258444 13.05158198 14.10464276 14.10369079 15.15625 15.15625 C15.70410156 15.70410156 16.25195312 16.25195312 16.81640625 16.81640625 C29.90820312 29.90820312 29.90820312 29.90820312 43 43 C43.598125 43.556875 44.19625 44.11375 44.8125 44.6875 C46 46 46 46 46 48 C46.7425 48.20625 47.485 48.4125 48.25 48.625 C51.84808938 50.42404469 52.83511627 52.6253283 55 56 C58.38742791 59.78697069 62.13855254 63.14479286 66 66.4375 C69.35864986 69.33288781 72.20757143 72.44157471 75.078125 75.8125 C80.21667093 81.66125146 85.31232732 86.99442372 92 91 C92.36162029 92.32594105 92.69728039 93.65938457 93 95 C94.31403276 95.70394612 95.6520257 96.36345658 97 97 C98.6962166 98.63658327 100.35686477 100.31012954 102 102 C103.02382526 103.03638497 104.04869537 104.07173852 105.07446289 105.10620117 C105.62175552 105.65994919 106.16904816 106.2136972 106.73292542 106.78422546 C109.19171842 109.26988911 111.65593122 111.75015129 114.12036133 114.23022461 C115.41869535 115.53867764 116.71523741 116.84891112 118.01000977 118.16088867 C119.8886879 120.06381395 121.77374218 121.96021592 123.66015625 123.85546875 C124.52435936 124.73515572 124.52435936 124.73515572 125.40602112 125.63261414 C128.08819452 128.31553215 130.38862861 130.61295631 134 132 C131.20696538 135.01714201 128.55091929 137.00043157 124.921875 138.91796875 C123.93453369 139.44511475 122.94719238 139.97226074 121.92993164 140.51538086 C120.8805542 141.06718018 119.83117676 141.61897949 118.75 142.1875 C116.55548012 143.35842067 114.36146945 144.53029619 112.16796875 145.703125 C111.10239746 146.27095703 110.03682617 146.83878906 108.93896484 147.42382812 C105.28675069 149.38251682 101.6671619 151.39292681 98.0625 153.4375 C97.45253174 153.78288818 96.84256348 154.12827637 96.21411133 154.48413086 C94.89816794 155.22930362 93.58233649 155.97467407 92.26660156 156.72021484 C87.49888361 159.41219863 82.71636285 162.07786966 77.9375 164.75 C69.82094214 169.29083399 61.71669006 173.85251496 53.625 178.4375 C44.17399603 183.79031717 34.68673272 189.0759467 25.18798828 194.34350586 C17.61495014 198.54398175 10.05319919 202.76396298 2.5 207 C-16.67414693 217.7489596 -35.90003771 228.4038437 -55.15209961 239.01245117 C-63.38404872 243.54975953 -71.60074021 248.11372703 -79.8125 252.6875 C-89.24903281 257.94233746 -98.72781142 263.11202716 -108.23706055 268.23388672 C-114.91621917 271.84218682 -121.53151219 275.55030969 -128.125 279.3125 C-138.38871654 285.16379439 -148.79218881 290.72899043 -159.22802734 296.2644043 C-166.6315192 300.19297145 -173.99660484 304.17873387 -181.30688477 308.27856445 C-187.74923502 311.88295416 -194.24677781 315.38185681 -200.75 318.875 C-220.32895724 329.3943618 -239.81147604 340.08493154 -259.26506042 350.83392334 C-263.90451208 353.39673753 -268.54746996 355.95313554 -273.19140625 358.5078125 C-275.18982559 359.60784714 -277.18817494 360.70800878 -279.18649292 361.80822754 C-280.47019733 362.51465803 -281.75414998 363.22063762 -283.0383606 363.92614746 C-284.82050607 364.90529109 -286.60168187 365.88619901 -288.3828125 366.8671875 C-289.39746582 367.42519043 -290.41211914 367.98319336 -291.45751953 368.55810547 C-293.34922891 369.63093393 -295.19050097 370.79366731 -297 372 C-300.24580836 371.86540508 -301.61134944 371.37701432 -303.95703125 369.1015625 C-304.87548828 367.87566406 -304.87548828 367.87566406 -305.8125 366.625 C-306.49828125 365.71878906 -307.1840625 364.81257813 -307.890625 363.87890625 C-308.58671875 362.92886719 -309.2828125 361.97882813 -310 361 C-310.67546875 360.10152344 -311.3509375 359.20304687 -312.046875 358.27734375 C-315.37623456 353.79303194 -318.50355417 349.25245143 -321.4375 344.5 C-324.40708546 339.75931649 -327.75566293 335.55703494 -331.34765625 331.27734375 C-336.65814593 324.82933358 -341.44829987 317.95322245 -346.37548828 311.21191406 C-348.53780292 308.26773453 -350.73492219 305.35167987 -352.9375 302.4375 C-355.4171227 299.14340269 -357.84189884 295.82817099 -360.1875 292.4375 C-365.40382331 284.91091695 -370.89901916 277.5837301 -376.35205078 270.22802734 C-377.77135298 268.30913078 -379.18271643 266.38485767 -380.58984375 264.45703125 C-384.80421427 258.73170891 -389.25453943 253.41428918 -394.05859375 248.17578125 C-397.21962266 244.63313919 -399.52122383 241.21775678 -401.2578125 236.80078125 C-403.06484694 232.52517869 -405.69007346 229.04206594 -408.5 225.375 C-417 214.14688329 -417 214.14688329 -417 209.5 C-414.88912478 202.11193674 -408.8553313 199.47885626 -402.49609375 195.8828125 C-396.07780177 192.42625749 -389.5450002 189.20830346 -383 186 C-372.45473416 180.9322684 -372.45473416 180.9322684 -362.3125 175.125 C-355.63755922 170.9827096 -348.42303613 167.85168125 -341.32421875 164.515625 C-334.79806742 161.4464127 -328.356503 158.21848524 -321.91943359 154.96777344 C-318.61742792 153.30291074 -315.30828656 151.65233591 -312 150 C-310.66663414 149.3333984 -309.33330076 148.66673181 -308 148 C-300 144 -300 144 -298.00024414 143.00024414 C-296.66596678 142.33302403 -295.33181974 141.66554323 -293.99780273 140.99780273 C-290.67992857 139.33744931 -287.35996671 137.68158076 -284.03515625 136.03515625 C-276.409812 132.25250516 -268.8569965 128.35799621 -261.34692383 124.35131836 C-256.03821731 121.52738394 -250.67965007 118.82081651 -245.28979492 116.15576172 C-239.74811902 113.40341171 -234.28070117 110.52001878 -228.8125 107.625 C-220.87988426 103.43307899 -212.85337464 99.50695838 -204.73120117 95.69750977 C-198.94352516 92.96777897 -193.26600543 90.08272641 -187.625 87.0625 C-180.67238767 83.34044613 -173.63106818 79.86715366 -166.5 76.5 C-158.61380621 72.77600027 -150.86544892 68.87489185 -143.17895508 64.75634766 C-137.26399939 61.60966261 -131.25285312 58.71906879 -125.1875 55.875 C-114.47462436 50.83726129 -104.0600855 45.30906858 -93.63916016 39.70166016 C-92.37407756 39.02105825 -91.10894195 38.34055485 -89.84375 37.66015625 C-89.23590668 37.33325806 -88.62806335 37.00635986 -88.00180054 36.66955566 C-82.96317494 33.96633906 -77.87668025 31.38035568 -72.74658203 28.85668945 C-67.26613188 26.15443179 -61.85070841 23.33427421 -56.4375 20.5 C-37.79469271 10.75286683 -37.79469271 10.75286683 -29.41018677 6.40234375 C-28.01816387 5.6791245 -26.6269396 4.95436587 -25.23654175 4.22802734 C-23.28082535 3.20663593 -21.3224033 2.19062142 -19.36328125 1.17578125 C-18.23188721 0.58708252 -17.10049316 -0.00161621 -15.93481445 -0.6081543 C-9.79210516 -3.521355 -6.06068479 -3.01495995 0 0 Z " fill="#F6F6F6" transform="translate(642,373)"/>
</svg>
